HIERARCHY
ROOT Hips
{
	OFFSET 0.000000 0.000000 0.000000
	CHANNELS 6 Xposition Yposition Zposition Xrotation Yrotation Zrotation
	JOINT LeftUpLeg_virtual
	{
		OFFSET 0.000000 0.000000 0.000000
		CHANNELS 3 Xrotation Yrotation Zrotation
		JOINT LeftUpLeg
		{
			OFFSET 11.394100 -6.187798 -0.413800
			CHANNELS 3 Xrotation Yrotation Zrotation
			JOINT LeftLeg
			{
				OFFSET 0.430247 -32.302673 3.732800
				CHANNELS 3 Xrotation Yrotation Zrotation
				JOINT LeftFoot
				{
					OFFSET -0.430247 -48.264931 -6.423300
					CHANNELS 3 Xrotation Yrotation Zrotation
					JOINT LeftToeBase
					{
						OFFSET 4.230900 -16.068199 23.438400
						CHANNELS 3 Xrotation Yrotation Zrotation
						JOINT LeftToe_End
						{
							OFFSET 4.510700 0.695400 19.974600
							CHANNELS 3 Xrotation Yrotation Zrotation
							End Site
							{
								OFFSET 0 0 0
							}
						}
					}
				}
			}
		}
	}
	JOINT RightUpLeg_virtual
	{
		OFFSET 0.000000 0.000000 0.000000
		CHANNELS 3 Xrotation Yrotation Zrotation
		JOINT RightUpLeg
		{
			OFFSET -11.333700 -6.187798 -0.413800
			CHANNELS 3 Xrotation Yrotation Zrotation
			JOINT RightLeg
			{
				OFFSET -0.430392 -32.302628 3.733000
				CHANNELS 3 Xrotation Yrotation Zrotation
				JOINT RightFoot
				{
					OFFSET 0.430392 -48.264973 -6.423500
					CHANNELS 3 Xrotation Yrotation Zrotation
					JOINT RightToeBase
					{
						OFFSET -4.230900 -16.068199 23.438400
						CHANNELS 3 Xrotation Yrotation Zrotation
						JOINT RightToe_End
						{
							OFFSET -4.510700 0.695400 19.974600
							CHANNELS 3 Xrotation Yrotation Zrotation
							End Site
							{
								OFFSET 0 0 0
							}
						}
					}
				}
			}
		}
	}
	JOINT Spine_virtual
	{
		OFFSET 0.000000 0.000000 0.000000
		CHANNELS 3 Xrotation Yrotation Zrotation
		JOINT Spine
		{
			OFFSET -0.002400 12.777504 0.315300
			CHANNELS 3 Xrotation Yrotation Zrotation
			JOINT Spine1
			{
				OFFSET -0.002067 5.816869 0.032633
				CHANNELS 3 Xrotation Yrotation Zrotation
				JOINT Spine1_split
				{
					OFFSET -0.002067 5.816869 0.032633
					CHANNELS 3 Xrotation Yrotation Zrotation
					JOINT Spine2
					{
						OFFSET -0.002067 5.816869 0.032633
						CHANNELS 3 Xrotation Yrotation Zrotation
						JOINT Neck_virtual
						{
							OFFSET 0.000000 0.000000 0.000000
							CHANNELS 3 Xrotation Yrotation Zrotation
							JOINT Neck
							{
								OFFSET -0.003700 21.199493 -0.826900
								CHANNELS 3 Xrotation Yrotation Zrotation
								JOINT Head
								{
									OFFSET 0.000000 20.442200 4.834800
									CHANNELS 3 Xrotation Yrotation Zrotation
									JOINT HeadTop_End
									{
										OFFSET 0.000000 34.668396 4.968400
										CHANNELS 3 Xrotation Yrotation Zrotation
										End Site
										{
											OFFSET 0 0 0
										}
									}
								}
							}
						}
						JOINT LeftShoulder_virtual
						{
							OFFSET 0.000000 0.000000 0.000000
							CHANNELS 3 Xrotation Yrotation Zrotation
							JOINT LeftShoulder
							{
								OFFSET 3.288150 8.794197 -1.372250
								CHANNELS 3 Xrotation Yrotation Zrotation
								JOINT LeftShoulder_split
								{
									OFFSET 3.288150 8.794197 -1.372250
									CHANNELS 3 Xrotation Yrotation Zrotation
									JOINT LeftArm
									{
										OFFSET 11.953299 -2.279007 -0.146200
										CHANNELS 3 Xrotation Yrotation Zrotation
										JOINT LeftForeArm
										{
											OFFSET 18.448900 0.000000 0.000000
											CHANNELS 3 Xrotation Yrotation Zrotation
											JOINT LeftHand
											{
												OFFSET 29.527798 0.000000 0.000000
												CHANNELS 3 Xrotation Yrotation Zrotation
												End Site
												{
													OFFSET 0 0 0
												}
											}
										}
									}
								}
							}
						}
						JOINT RightShoulder_virtual
						{
							OFFSET 0.000000 0.000000 0.000000
							CHANNELS 3 Xrotation Yrotation Zrotation
							JOINT RightShoulder
							{
								OFFSET -3.249400 8.794197 -1.372250
								CHANNELS 3 Xrotation Yrotation Zrotation
								JOINT RightShoulder_split
								{
									OFFSET -3.249400 8.794197 -1.372250
									CHANNELS 3 Xrotation Yrotation Zrotation
									JOINT RightArm
									{
										OFFSET -11.953299 -2.279007 -0.146200
										CHANNELS 3 Xrotation Yrotation Zrotation
										JOINT RightForeArm
										{
											OFFSET -18.448900 0.000000 0.000000
											CHANNELS 3 Xrotation Yrotation Zrotation
											JOINT RightHand
											{
												OFFSET -29.527802 0.000000 0.000000
												CHANNELS 3 Xrotation Yrotation Zrotation
												End Site
												{
													OFFSET 0 0 0
												}
											}
										}
									}
								}
							}
						}
					}
				}
			}
		}
	}
}
MOTION
Frames: 11
Frame Time: 0.03333333
8.462373 92.483269 1.563007 0.000000 0.000000 0.000000 7.678737 -12.469191 -1.448610 -43.046878 4.939154 13.772848 49.702604 10.671564 -0.526973 -12.885907 3.562654 -7.396151 -3.075509 -2.348358 -2.459409 0.000000 0.000000 0.000000 7.678737 -12.469191 -1.448610 -31.921220 -6.311917 -14.357648 51.226839 -9.324412 -4.142643 -14.279154 -1.168791 12.545149 -14.272386 -2.388035 5.487243 0.000000 0.000000 0.000000 7.678737 -12.469191 -1.448610 12.192847 3.396272 -0.754319 8.547014 6.722063 -1.512191 0.000000 0.000000 0.000000 0.000000 0.000000 0.000000 -3.408227 6.901168 -0.063846 -1.053639 -3.761029 2.184398 -5.982006 4.507764 3.913932 0.000000 0.000000 0.000000 -3.408227 6.901168 -0.063846 -1.721889 -5.625959 -0.861950 0.000000 0.000000 0.000000 -9.809318 -3.483227 -61.749643 -12.683618 -28.217813 -4.423329 0.000000 0.000000 0.000000 -3.408227 6.901168 -0.063846 5.552870 -18.831829 2.973355 0.000000 0.000000 0.000000 39.568259 52.456611 11.456159 15.406275 28.844343 12.492167 0.000000 0.000000 0.000000 
8.634622 93.313133 1.328358 0.000000 0.000000 0.000000 7.716413 -12.724330 -1.825998 -42.041604 5.521281 13.901974 47.505875 10.471111 -0.201274 -12.017204 3.627756 -7.092550 -3.075527 -2.348387 -2.459427 0.000000 0.000000 0.000000 7.716413 -12.724330 -1.825998 -29.708888 -7.041424 -13.362253 45.695752 -7.920769 -3.732432 -14.677641 0.035837 13.074116 -8.843845 -2.898057 4.936611 0.000000 0.000000 0.000000 7.716413 -12.724330 -1.825998 12.057240 3.349135 -0.606321 8.235408 6.693145 -1.358528 0.000000 0.000000 0.000000 0.000000 0.000000 0.000000 -3.710604 6.857831 0.094730 -1.458330 -3.264164 1.331756 -5.486254 4.125540 4.660445 0.000000 0.000000 0.000000 -3.710604 6.857831 0.094730 -1.716041 -4.454584 -0.893411 0.000000 0.000000 0.000000 -9.717398 -3.541833 -62.272276 -11.923618 -27.096115 -3.494359 0.000000 0.000000 0.000000 -3.710604 6.857831 0.094730 5.098990 -17.776590 2.830945 0.000000 0.000000 0.000000 31.146814 51.316885 16.165642 17.702662 22.785036 11.882985 0.000000 0.000000 0.000000 
8.832955 94.001541 0.984524 0.000000 0.000000 0.000000 7.741404 -12.987156 -2.176819 -41.191297 5.572661 13.982776 45.687009 10.792775 -0.150708 -11.160105 3.557059 -6.897633 -3.075495 -2.348383 -2.459420 0.000000 0.000000 0.000000 7.741404 -12.987156 -2.176819 -27.792970 -7.769976 -12.438766 40.310298 -6.961234 -3.600003 -14.502773 1.232158 13.513439 -4.406076 -3.051668 6.171532 0.000000 0.000000 0.000000 7.741404 -12.987156 -2.176819 11.917469 3.307468 -0.456096 7.915923 6.670849 -1.209775 0.000000 0.000000 0.000000 0.000000 0.000000 0.000000 -4.021065 6.836051 0.250614 -1.840864 -2.854065 0.319121 -4.930050 3.603732 5.350209 0.000000 0.000000 0.000000 -4.021065 6.836051 0.250614 -1.693606 -3.827968 -1.241115 0.000000 0.000000 0.000000 -9.593852 -3.482806 -62.534999 -11.037048 -26.271938 -2.727125 0.000000 0.000000 0.000000 -4.021065 6.836051 0.250614 4.610793 -16.271285 2.746254 0.000000 0.000000 0.000000 24.194349 47.069152 21.401103 20.960216 21.627943 10.737953 0.000000 0.000000 0.000000 
9.002598 94.528519 0.736099 0.000000 0.000000 0.000000 7.715427 -13.055954 -2.516468 -40.529530 5.660198 14.163751 44.292803 10.769785 -0.222414 -10.521104 3.504966 -6.606357 -3.075513 -2.348386 -2.459411 0.000000 0.000000 0.000000 7.715427 -13.055954 -2.516468 -26.242094 -8.540339 -11.484464 35.717723 -4.348098 -3.667697 -13.832024 0.323083 13.285433 -2.094431 -3.284916 5.374504 0.000000 0.000000 0.000000 7.715427 -13.055954 -2.516468 11.778815 3.262124 -0.309330 7.597635 6.639435 -1.064228 0.000000 0.000000 0.000000 0.000000 0.000000 0.000000 -4.329984 6.793162 0.400624 -2.097910 -2.467596 -0.485375 -4.703820 3.176679 5.961100 0.000000 0.000000 0.000000 -4.329984 6.793162 0.400624 -1.684022 -3.655044 -1.369009 0.000000 0.000000 0.000000 -9.364238 -3.313601 -62.863258 -10.281049 -25.321796 -1.958511 0.000000 0.000000 0.000000 -4.329984 6.793162 0.400624 4.022894 -14.699896 2.630174 0.000000 0.000000 0.000000 18.984069 43.625480 27.206242 21.850414 20.601128 9.208949 0.000000 0.000000 0.000000 
9.048080 94.985176 0.583324 0.000000 0.000000 0.000000 7.307055 -12.884712 -2.806573 -39.539467 6.044954 14.381404 42.994528 10.237683 -0.317894 -10.008140 3.484503 -6.247023 -3.075497 -2.348382 -2.459415 0.000000 0.000000 0.000000 7.307055 -12.884712 -2.806573 -24.744324 -8.557409 -10.441566 32.216240 -2.535594 -3.955215 -12.779380 -1.000814 13.201396 -1.716984 -3.079054 6.618604 0.000000 0.000000 0.000000 7.307055 -12.884712 -2.806573 11.662332 3.162431 -0.174716 7.324741 6.494894 -0.931729 0.000000 0.000000 0.000000 0.000000 0.000000 0.000000 -4.590988 6.645015 0.513621 -2.350861 -2.140417 -1.082407 -4.321783 2.812426 6.500075 0.000000 0.000000 0.000000 -4.590988 6.645015 0.513621 -1.686311 -3.491241 -1.306876 0.000000 0.000000 0.000000 -9.128476 -3.161150 -63.281525 -9.621715 -24.665324 -1.360157 0.000000 0.000000 0.000000 -4.590988 6.645015 0.513621 3.436049 -12.677617 2.720372 0.000000 0.000000 0.000000 14.843987 39.461097 33.241206 22.083622 20.411412 7.131018 0.000000 0.000000 0.000000 
8.929367 95.475998 0.541264 0.000000 0.000000 0.000000 6.514608 -12.348674 -3.146624 -38.018612 6.459026 14.503589 41.503945 9.318600 -0.333524 -9.479604 3.578031 -5.921657 -3.075510 -2.348387 -2.459412 0.000000 0.000000 0.000000 6.514608 -12.348674 -3.146624 -23.126751 -8.014621 -9.771357 29.517574 -3.539913 -4.013351 -11.411486 -0.445905 14.002284 -1.287559 -1.373555 5.867416 0.000000 0.000000 0.000000 6.514608 -12.348674 -3.146624 11.582800 3.021366 -0.035497 7.121373 6.275668 -0.751660 0.000000 0.000000 0.000000 0.000000 0.000000 0.000000 -4.781021 6.413116 0.656969 -2.346675 -1.940746 -1.582422 -4.023491 2.365327 7.157914 0.000000 0.000000 0.000000 -4.781021 6.413116 0.656969 -1.683971 -3.311990 -1.311699 0.000000 0.000000 0.000000 -9.066529 -3.203672 -63.661816 -8.896724 -23.916138 -0.825331 0.000000 0.000000 0.000000 -4.781021 6.413116 0.656969 2.823420 -10.771067 2.883930 0.000000 0.000000 0.000000 11.686280 34.989884 39.226285 20.903463 20.431852 5.441446 0.000000 0.000000 0.000000 
8.685575 95.881187 0.612194 0.000000 0.000000 0.000000 5.832230 -11.649456 -3.246262 -36.533872 6.706724 14.212346 40.090622 8.544922 -0.134951 -8.995863 3.778537 -5.824472 -3.075545 -2.348400 -2.459419 0.000000 0.000000 0.000000 5.832230 -11.649456 -3.246262 -21.851240 -6.943346 -8.963563 28.086204 -5.012250 -4.698844 -11.882014 -0.894560 15.945024 -1.386919 -1.056279 5.607921 0.000000 0.000000 0.000000 5.832230 -11.649456 -3.246262 11.478923 2.874820 0.074188 6.871408 6.046716 -0.607235 0.000000 0.000000 0.000000 0.000000 0.000000 0.000000 -5.017913 6.177903 0.762653 -2.262844 -1.908073 -2.185224 -3.777329 1.709236 7.965337 0.000000 0.000000 0.000000 -5.017913 6.177903 0.762653 -1.665090 -3.105137 -1.529663 0.000000 0.000000 0.000000 -9.143974 -3.384154 -63.951191 -8.306447 -23.428123 -0.465725 0.000000 0.000000 0.000000 -5.017913 6.177903 0.762653 2.183740 -8.911536 3.004668 0.000000 0.000000 0.000000 9.669406 30.271576 44.918661 18.140928 20.668639 4.430786 0.000000 0.000000 0.000000 
8.270493 96.178497 0.783062 0.000000 0.000000 0.000000 5.010310 -11.194133 -3.218833 -34.890078 6.914136 13.859086 38.923626 8.023241 0.218330 -8.666261 4.074010 -6.045356 -3.075536 -2.348358 -2.459414 0.000000 0.000000 0.000000 5.010310 -11.194133 -3.218833 -20.954810 -5.997438 -8.061660 27.674851 -5.242070 -5.289875 -12.153614 -2.215935 16.335060 -1.494470 -0.985242 5.533829 0.000000 0.000000 0.000000 5.010310 -11.194133 -3.218833 11.393408 2.784336 0.151649 6.662424 5.930126 -0.510393 0.000000 0.000000 0.000000 0.000000 0.000000 0.000000 -5.216855 6.061059 0.844169 -2.198535 -1.983300 -2.895914 -3.342765 0.921943 8.784423 0.000000 0.000000 0.000000 -5.216855 6.061059 0.844169 -1.626238 -2.900658 -1.982237 0.000000 0.000000 0.000000 -9.221896 -3.555624 -64.215622 -7.940967 -23.082245 -0.206262 0.000000 0.000000 0.000000 -5.216855 6.061059 0.844169 1.514007 -7.244174 3.121622 0.000000 0.000000 0.000000 8.638247 25.595263 50.012424 15.308641 21.394451 3.395842 0.000000 0.000000 0.000000 
7.788531 96.533180 1.004063 0.000000 0.000000 0.000000 4.290454 -11.070405 -2.965563 -33.014013 7.316163 13.512780 37.441816 7.393230 0.398817 -8.288572 4.645316 -6.238717 -3.075536 -2.348370 -2.459425 0.000000 0.000000 0.000000 4.290454 -11.070405 -2.965563 -19.761505 -5.528665 -7.582570 26.658877 -6.308336 -5.631648 -11.024483 -2.136449 16.182147 -1.798765 -0.562361 5.158637 0.000000 0.000000 0.000000 4.290454 -11.070405 -2.965563 11.276851 2.719677 0.166248 6.401188 5.854618 -0.550669 0.000000 0.000000 0.000000 0.000000 0.000000 0.000000 -5.469412 6.010990 0.798894 -1.939185 -2.034812 -3.502358 -2.992118 0.227226 9.509896 0.000000 0.000000 0.000000 -5.469412 6.010990 0.798894 -1.603648 -2.502510 -2.189662 0.000000 0.000000 0.000000 -9.175687 -3.656381 -64.764530 -7.733297 -22.858135 -0.055186 0.000000 0.000000 0.000000 -5.469412 6.010990 0.798894 0.882252 -5.515090 3.366800 0.000000 0.000000 0.000000 8.325342 20.822943 54.564301 12.793251 22.200244 2.392415 0.000000 0.000000 0.000000 
7.332981 96.927383 1.155331 0.000000 0.000000 0.000000 3.802334 -10.908774 -2.641981 -31.313825 7.798806 13.225607 35.746376 6.986710 0.449275 -7.765489 4.811608 -6.380718 -3.075544 -2.348361 -2.459416 0.000000 0.000000 0.000000 3.802334 -10.908774 -2.641981 -18.273500 -6.166907 -8.147414 24.966665 -6.167730 -5.083622 -9.548108 -1.504021 15.680721 -2.493479 -0.274848 4.533529 0.000000 0.000000 0.000000 3.802334 -10.908774 -2.641981 11.113624 2.646090 0.176887 6.049153 5.756721 -0.590840 0.000000 0.000000 0.000000 0.000000 0.000000 0.000000 -5.812799 5.937217 0.747833 -1.679811 -2.103830 -4.051902 -2.428146 -0.428834 10.198237 0.000000 0.000000 0.000000 -5.812799 5.937217 0.747833 -1.581681 -2.228633 -2.402151 0.000000 0.000000 0.000000 -8.976543 -3.562172 -65.265319 -7.577424 -22.751717 0.013620 0.000000 0.000000 0.000000 -5.812799 5.937217 0.747833 0.287399 -3.809689 3.493065 0.000000 0.000000 0.000000 8.365675 16.000664 58.734047 10.317571 22.742372 1.637590 0.000000 0.000000 0.000000 
6.804834 97.251305 1.285370 0.000000 0.000000 0.000000 3.681281 -10.913548 -2.399093 -30.145965 8.066819 13.118851 34.295742 6.495400 0.512009 -7.272775 5.273475 -6.607352 -3.075509 -2.348376 -2.459418 0.000000 0.000000 0.000000 3.681281 -10.913548 -2.399093 -17.440400 -7.128138 -8.715749 23.692523 -5.805989 -4.318650 -8.478094 -0.904022 14.987139 -3.590575 0.224338 3.158666 0.000000 0.000000 0.000000 3.681281 -10.913548 -2.399093 10.849967 2.615887 0.221600 5.494274 5.744979 -0.536825 0.000000 0.000000 0.000000 0.000000 0.000000 0.000000 -6.361568 5.926499 0.805422 -1.164209 -2.110579 -4.725306 -2.025647 -1.083587 10.875487 0.000000 0.000000 0.000000 -6.361568 5.926499 0.805422 -1.537527 -2.089403 -2.883101 0.000000 0.000000 0.000000 -8.549924 -3.192458 -65.721241 -7.363572 -22.728348 -0.032466 0.000000 0.000000 0.000000 -6.361568 5.926499 0.805422 -0.279992 -2.511095 3.536383 0.000000 0.000000 0.000000 8.838010 11.628207 62.157665 7.804143 23.008754 1.239088 0.000000 0.000000 0.000000 
